# xmcd
#
# Track frame offsets:
#	150
#	30845
#	65120
#	85337
#	108395
#	127220
#	162050
#	216477
#	232820
#	255640
#	277445
#
# Disc length: 4004 seconds
#
# Revision: 1
# Processed by: cddbd v1.5.1PL0 Copyright (c) Steve Scherf et al.
# Submitted via: audiograbber 1.83.01
#
DISCID=a10fa20b
DTITLE=Jeff Beck - "Final BBC On The Air"
DYEAR=1900
DGENRE=
TTITLE0=Ice Cream Cakes
TTITLE1=Definitely Maybe
TTITLE2=Ain'T No Sunshine
TTITLE3=Morning Dew
TTITLE4=Keyboard Solo - Going Down
TTITLE5=New Ways - Plynth - Train,Train
TTITLE6=Got The Feeling
TTITLE7=Goin' Down
TTITLE8=Got The Feeling
TTITLE9=Got The Feeling
TTITLE10=Situation
EXTD=
EXTT0=
EXTT1=
EXTT2=
EXTT3=
EXTT4=
EXTT5=
EXTT6=
EXTT7=
EXTT8=
EXTT9=
EXTT10=
PLAYORDER=
